<svg width="28" height="24" viewBox="0 0 28 24" fill="none" xmlns="http://www.w3.org/2000/svg">
<path d="M1.72159 23V5.54545H4.88352V20.3494H12.571V23H1.72159Z" fill="#32C672"/>
<path d="M25.2688 7.59597C24.717 7.36891 24.0793 7.43656 23.6071 7.77249L22.1637 8.79972C21.8775 9.00346 21.8355 9.37049 22.0698 9.62089C22.3041 9.86895 22.7271 9.90627 23.0142 9.70176L24.4576 8.67453C24.5515 8.60765 24.6472 8.6302 24.6946 8.64964C24.7438 8.67064 24.8252 8.71963 24.8252 8.82849V14.1715C24.8252 14.2804 24.7438 14.3294 24.6946 14.3504C24.6472 14.3706 24.5515 14.3923 24.4567 14.3255L21.0387 11.8915V8.79817C21.0387 6.893 19.4647 5.5625 17.211 5.5625H11.661C9.4073 5.5625 7.83331 6.893 7.83331 8.79817V14.2104C7.83331 16.1101 9.40372 17.4375 11.652 17.4375C12.0223 17.4375 12.3227 17.1762 12.3227 16.8543C12.3227 16.5324 12.0223 16.2711 11.652 16.2711C10.1236 16.2711 9.17478 15.4818 9.17478 14.2104V8.79817C9.17478 7.52132 10.1272 6.72893 11.661 6.72893H17.211C18.7448 6.72893 19.6972 7.52132 19.6972 8.79817V14.2104C19.6972 15.4818 18.7448 16.2711 17.211 16.2711H15.6648C15.2945 16.2711 14.994 16.5324 14.994 16.8543C14.994 17.1762 15.2945 17.4375 15.6648 17.4375H17.211C19.4647 17.4375 21.0387 16.1101 21.0387 14.2104V13.3993L23.6071 15.2275C23.8933 15.432 24.2412 15.537 24.5936 15.537C24.8216 15.537 25.0514 15.4935 25.2688 15.404C25.8223 15.1762 26.1666 14.7042 26.1666 14.1715V8.82849C26.1666 8.29583 25.8223 7.82381 25.2688 7.59597" fill="#32C672"/>
</svg>
